<svg width="54" height="47" viewBox="0 0 54 47" fill="none" xmlns="http://www.w3.org/2000/svg">
<g id="Standard Collection 17">
<g id="Group">
<path id="Vector" d="M46.2617 7.41256L43.6987 20.1792C43.6934 20.2047 43.6954 20.2311 43.7042 20.2557C43.7128 20.2803 43.7282 20.3021 43.7484 20.3189C43.7687 20.3357 43.7931 20.3468 43.819 20.3511C43.8452 20.3554 43.8721 20.3528 43.8967 20.3435L46.6369 19.3278C46.6435 19.3652 46.6501 19.404 46.6562 19.4399C47.3142 23.5175 46.8321 27.6942 45.2615 31.5229C43.6908 35.3516 41.0908 38.6879 37.74 41.1748C34.3889 43.6615 30.4134 45.205 26.2386 45.64C22.0641 46.075 17.8479 45.385 14.0415 43.6439C18.0328 45.8209 22.5655 46.8515 27.1233 46.6182C31.6811 46.3849 36.0807 44.8974 39.8206 42.3248C43.5607 39.7523 46.4908 36.1984 48.277 32.0678C50.0632 27.9374 50.634 23.3965 49.9239 18.9627L53.0797 19.2146C53.1066 19.2167 53.1332 19.2116 53.1574 19.1998C53.1814 19.1881 53.2016 19.1702 53.2162 19.1479C53.2307 19.1257 53.2386 19.1 53.2395 19.0737C53.2402 19.0473 53.2338 19.0212 53.2206 18.9982L46.5357 7.36841C46.5207 7.34259 46.498 7.3219 46.4707 7.30911C46.4435 7.29632 46.4129 7.29203 46.3832 7.29684C46.3532 7.30164 46.3257 7.31532 46.3039 7.33599C46.2822 7.35668 46.2674 7.38341 46.2617 7.41256Z" fill="url(#paint0_linear_928_5891)"/>
<path id="Vector_2" d="M41.367 34.0472C39.2967 36.6369 36.6377 38.7132 33.604 40.1095C30.5701 41.5059 27.2457 42.1835 23.8975 42.0878C20.5492 41.9922 17.2704 41.1261 14.324 39.559C11.3777 37.9917 8.84588 35.7671 6.93182 33.0635C5.01774 30.3602 3.77465 27.2531 3.3023 23.9916C2.82997 20.7303 3.14152 17.4054 4.212 14.2839C5.28244 11.1624 7.08199 8.33104 9.46622 6.01714C11.8505 3.70324 14.753 1.97118 17.941 0.959961C13.833 1.95291 10.0915 4.06139 7.1433 7.0449C4.19509 10.0284 2.15892 13.7668 1.26704 17.8336C0.375166 21.9004 0.663498 26.1318 2.09915 30.0451C3.53481 33.9587 6.05997 37.3963 9.38659 39.9663C12.7132 42.5363 16.7073 44.135 20.9133 44.5799C25.1192 45.0249 29.3677 44.2984 33.174 42.483C36.9803 40.6677 40.1912 37.8369 42.4404 34.3134C44.6894 30.7898 45.8863 26.7155 45.8944 22.5553C45.5923 26.746 44.0147 30.7502 41.367 34.0472Z" fill="url(#paint1_linear_928_5891)"/>
<path id="Vector_3" d="M36.6559 11.7937C35.3358 13.4473 33.8345 14.9529 32.1792 16.2835C32.1625 16.297 32.1489 16.3141 32.1396 16.3334C32.1304 16.3527 32.1256 16.3738 32.1256 16.3952V37.0527C32.1256 37.2189 32.0719 37.3808 31.9722 37.515C31.8725 37.6494 31.7321 37.7489 31.5712 37.7996L31.5541 37.805C31.4348 37.8426 31.3083 37.8519 31.1846 37.8323C31.0609 37.8128 30.9436 37.7645 30.8426 37.692C30.7414 37.6193 30.6591 37.5243 30.6023 37.4146C30.5455 37.3046 30.516 37.1832 30.516 37.0601V17.8008C30.516 17.7743 30.5088 17.7484 30.4949 17.7257C30.4811 17.703 30.461 17.6846 30.437 17.6723C30.4133 17.6601 30.3864 17.6545 30.3596 17.6562C30.3327 17.6579 30.3068 17.6668 30.2848 17.682C28.093 19.1662 25.7036 20.346 23.1842 21.188C23.1551 21.1976 23.1298 21.216 23.1118 21.2406C23.0939 21.2651 23.0843 21.2946 23.0843 21.3248V38.0084C23.0843 38.1242 23.0581 38.2387 23.0077 38.3432C22.9573 38.448 22.884 38.5404 22.7931 38.614C22.7021 38.6875 22.5956 38.7401 22.4814 38.7685C22.3672 38.7966 22.248 38.7997 22.1325 38.7771L22.1013 38.7711C21.9211 38.736 21.7589 38.6404 21.6425 38.5006C21.5261 38.3607 21.4627 38.1857 21.4631 38.005C21.4673 36.2087 21.4715 33.7902 21.4745 33.7919V21.8925C21.4745 21.8703 21.4693 21.8484 21.4594 21.8285C21.4494 21.8086 21.4348 21.7912 21.4169 21.7777C21.399 21.7642 21.3782 21.7549 21.356 21.7506C21.3339 21.7463 21.311 21.7471 21.2893 21.7529L21.2164 21.7717C19.161 22.3029 17.3424 23.4886 16.0446 25.1435C14.7467 26.7987 14.0427 28.8298 14.0425 30.9198V33.6599C14.0429 33.8129 13.9977 33.9629 13.9124 34.0908C13.8271 34.2189 13.7055 34.3195 13.5626 34.3803C13.4198 34.4409 13.2619 34.4593 13.1087 34.4327C12.9554 34.4063 12.8134 34.3362 12.7002 34.231C9.54332 31.247 7.53609 27.2789 7.0204 23.0027C6.50472 18.7265 7.5125 14.4068 9.87207 10.7793C12.2316 7.15191 15.797 4.44127 19.9608 3.10917C24.1245 1.77707 28.6291 1.90593 32.7072 3.4738C29.4963 1.97264 25.9356 1.34378 22.3942 1.65244C18.8529 1.96109 15.46 3.19603 12.5676 5.22912C9.67527 7.26224 7.38874 10.0194 5.94522 13.2147C4.50173 16.41 3.95386 19.9269 4.35845 23.4007C4.76305 26.8742 6.10538 30.1783 8.24619 32.9697C10.387 35.7613 13.2483 37.9385 16.5332 39.2758C19.8181 40.6128 23.4071 41.0612 26.9276 40.5745C30.4483 40.0876 33.772 38.683 36.5546 36.5067C37.5253 35.8479 38.4309 35.1006 39.2587 34.2745L39.3456 34.183C39.4827 34.0384 39.5589 33.8479 39.5584 33.6501V8.17013C39.5584 8.17013 39.5584 8.07923 39.5584 7.95868C39.5587 7.92646 39.5479 7.89508 39.5281 7.86947C39.508 7.84389 39.4801 7.82554 39.4484 7.81734C39.4167 7.80914 39.3831 7.81154 39.3529 7.82416C39.3228 7.83677 39.2979 7.85889 39.2818 7.88705C38.5162 9.25749 37.638 10.564 36.6559 11.7937Z" fill="url(#paint2_linear_928_5891)"/>
</g>
</g>
<defs>
<linearGradient id="paint0_linear_928_5891" x1="33.6405" y1="7.29492" x2="33.6405" y2="46.6506" gradientUnits="userSpaceOnUse">
<stop stop-color="#D89A60"/>
<stop offset="1" stop-color="#D88660"/>
</linearGradient>
<linearGradient id="paint1_linear_928_5891" x1="23.3271" y1="0.959961" x2="23.3271" y2="44.7072" gradientUnits="userSpaceOnUse">
<stop stop-color="#D89A60"/>
<stop offset="1" stop-color="#D88660"/>
</linearGradient>
<linearGradient id="paint2_linear_928_5891" x1="21.8937" y1="1.57593" x2="21.8937" y2="40.7653" gradientUnits="userSpaceOnUse">
<stop stop-color="#D89A60"/>
<stop offset="1" stop-color="#D88660"/>
</linearGradient>
</defs>
</svg>
